<svg xmlns="http://www.w3.org/2000/svg" viewBox="0 0 40.08 40.08"><defs><style>.a{fill:#fff;fill-opacity:0.7;}</style></defs><title>icon-close</title><path class="a" d="M23.22,19.93,39.46,3.7A2.28,2.28,0,0,0,40,2.16,2.21,2.21,0,0,0,39.34.67,2.31,2.31,0,0,0,37.85,0a2.2,2.2,0,0,0-1.53.54L20.08,16.79,3.85.54A2.22,2.22,0,0,0,.18,2.14,2.23,2.23,0,0,0,.71,3.68L16.94,19.93.69,36.16a2.23,2.23,0,0,0-.56.73,2.2,2.2,0,0,0-.22.88,2.3,2.3,0,0,0,.15.9,2.25,2.25,0,0,0,1.26,1.26,2.33,2.33,0,0,0,.9.15,2.29,2.29,0,0,0,.89-.22,2.16,2.16,0,0,0,.72-.56L20.08,23.07,36.32,39.3a2.2,2.2,0,0,0,1.53.54,2.26,2.26,0,0,0,1.49-.65A2.21,2.21,0,0,0,40,37.7a2.28,2.28,0,0,0-.53-1.54Z" transform="translate(0.09)"/></svg>